Coordinates
version=1
nRows=13
nColumns=40
inDegrees=yes

Units are S.I. units (second, meters, Newtons, ...)
Angles are in degrees.

endheader
time	pelvis_tilt	pelvis_list	pelvis_rotation	pelvis_tx	pelvis_ty	pelvis_tz	hip_flexion_r	hip_adduction_r	hip_rotation_r	knee_angle_r	knee_angle_r_beta	ankle_angle_r	subtalar_angle_r	mtp_angle_r	hip_flexion_l	hip_adduction_l	hip_rotation_l	knee_angle_l	knee_angle_l_beta	ankle_angle_l	subtalar_angle_l	mtp_angle_l	lumbar_extension	lumbar_bending	lumbar_rotation	arm_flex_r	arm_add_r	arm_rot_r	elbow_flex_r	pro_sup_r	wrist_flex_r	wrist_dev_r	arm_flex_l	arm_add_l	arm_rot_l	elbow_flex_l	pro_sup_l	wrist_flex_l	wrist_dev_l
     38.65500000	     -5.44741196	     -3.44373636	    -11.40518403	      0.93831743	      0.92521855	      0.51025755	     19.28628742	      3.37026933	     -2.69691141	     22.21743831	     22.21743831	     10.51709499	      2.08597337	     -2.49355753	     -1.06332570	     -8.12187306	    -13.64376654	     14.76446398	     14.76446398	     18.11752542	     -8.06924083	      1.97293723	     -6.86572339	      6.40096161	      1.14435415	     -9.88966161	    -14.36255935	     -7.98131865	     30.33193238	     45.50488194	      0.00000000	      0.00000000	     39.51526271	    -22.69279602	    -10.14324482	     74.50180499	     48.02910272	      0.00000000	      0.00000000
     38.67857143	     -5.44037358	     -3.45194169	    -10.88672215	      0.93861477	      0.92559777	      0.51546967	     18.80930745	      3.58493955	     -3.06926639	     22.12549278	     22.12549278	     10.82772017	      1.91759902	     -2.52071881	     -1.16754786	     -8.55597866	    -13.33373726	     15.08353569	     15.08353569	     17.88827693	     -7.94416093	      2.08024800	     -6.85595555	      6.17223315	      1.20755208	     -9.39537303	    -14.65791647	     -8.03309661	     30.52465935	     45.50670811	      0.00000000	      0.00000000	     38.39107122	    -21.98068514	     -9.78660345	     74.10157623	     47.98943983	      0.00000000	      0.00000000
     38.70214286	     -5.54533178	     -3.80092890	    -10.33005257	      0.93872522	      0.92600129	      0.52061943	     18.08179407	      4.17944959	     -3.63139467	     21.42389102	     21.42389102	     10.92729549	      2.00725312	     -2.30351991	     -0.81503767	     -9.48465499	    -12.87558419	     16.13371573	     16.13371573	     17.88764059	     -8.06105228	      2.29841864	     -6.72890197	      6.41594118	      1.12755356	     -8.82263386	    -15.06728395	     -8.14014645	     30.86486809	     45.51131907	      0.00000000	      0.00000000	     36.86352681	    -21.53412751	     -9.23028208	     73.22149543	     47.92388049	      0.00000000	      0.00000000
     38.72571429	     -5.56346554	     -3.95802120	     -9.77359360	      0.93858934	      0.92636971	      0.52546575	     17.46865116	      4.54801404	     -4.09007233	     21.00684498	     21.00684498	     11.12897582	      2.02141525	     -2.18513722	     -0.35714296	    -10.19522492	    -12.35284226	     17.40450610	     17.40450610	     17.84027038	     -8.21395741	      2.49877368	     -6.69601824	      6.40314288	      1.07929759	     -8.10766091	    -15.39569895	     -8.21315805	     31.29046655	     45.51153833	      0.00000000	      0.00000000	     35.23141919	    -20.95264814	     -8.61923236	     72.28665994	     47.85217138	      0.00000000	      0.00000000
     38.74928571	     -5.54944161	     -4.11672355	     -9.23681120	      0.93830010	      0.92664273	      0.53014312	     16.84994500	      4.91560952	     -4.58410178	     20.61414485	     20.61414485	     11.36706979	      2.01120282	     -2.09720485	      0.32008024	    -10.92431729	    -11.69193937	     19.10608524	     19.10608524	     17.72090079	     -8.67240718	      2.50553447	     -6.67553127	      6.39305385	      1.07361024	     -7.27703267	    -15.73764877	     -8.27472187	     31.75858146	     45.50973744	      0.00000000	      0.00000000	     33.37621440	    -20.30274215	     -8.02082452	     71.20672289	     47.77714790	      0.00000000	      0.00000000
     38.77285714	     -5.46373438	     -4.21200379	     -8.69921942	      0.93772977	      0.92692085	      0.53454451	     16.27126276	      5.20615815	     -4.96970811	     20.36339380	     20.36339380	     11.58640681	      1.94627492	     -2.03239038	      1.20664902	    -11.58163313	    -10.86096266	     21.23235421	     21.23235421	     17.41767459	     -9.31724794	      2.25330204	     -6.78656097	      6.28620839	      1.04895374	     -6.29268973	    -16.03651183	     -8.32174443	     32.25916448	     45.50630038	      0.00000000	      0.00000000	     31.30855897	    -19.53163610	     -7.42167354	     69.93643370	     47.69731417	      0.00000000	      0.00000000
     38.79642857	     -5.28494923	     -4.32412201	     -8.15860378	      0.93698593	      0.92707849	      0.53874468	     15.66891973	      5.50230032	     -5.32870200	     20.22861023	     20.22861023	     11.87236972	      1.78072674	     -2.00889399	      2.37352900	    -12.27317362	     -9.88090695	     24.00915844	     24.00915844	     16.93258257	    -10.25185205	      1.68629155	     -6.98896853	      6.20783132	      1.04718632	     -5.10351862	    -16.34002813	     -8.37329785	     32.78625363	     45.50253695	      0.00000000	      0.00000000	     29.06939183	    -18.68870331	     -6.83904140	     68.46791780	     47.61448378	      0.00000000	      0.00000000
     38.82000000	     -5.26148983	     -4.33550644	     -7.52985622	      0.93588098	      0.92671011	      0.54259616	     15.43319819	      5.71130129	     -5.58253485	     20.37091641	     20.37091641	     12.23341590	      1.22297733	     -1.94930772	      4.16129985	    -12.86822803	     -8.56823129	     27.40719980	     27.40719980	     15.96659845	    -11.55653416	      0.42138973	     -6.92184998	      6.04986424	      0.70181943	     -3.62522212	    -16.50606387	     -8.36857563	     33.35176757	     45.50152698	      0.00000000	      0.00000000	     26.68875468	    -17.94415902	     -6.14121099	     65.99497759	     47.50528324	      0.00000000	      0.00000000
     38.84357143	     -4.81437689	     -4.48604616	     -6.93305602	      0.93470522	      0.92662064	      0.54626449	     14.76895725	      6.00207925	     -5.88562334	     20.57776382	     20.57776382	     12.62379132	      0.79907459	     -1.99270982	      5.80276788	    -13.57123822	     -7.30347322	     31.39555933	     31.39555933	     14.96507069	    -12.72836402	     -0.55891885	     -7.49783175	      5.96945385	      0.81216365	     -2.10880510	    -16.76355784	     -8.41501489	     33.87308254	     45.49928477	      0.00000000	      0.00000000	     24.32401469	    -16.79415051	     -5.51612505	     64.25651615	     47.41409398	      0.00000000	      0.00000000
     38.86714286	     -4.78094793	     -4.54121251	     -6.18327258	      0.93306929	      0.92548053	      0.54958163	     14.83373574	      6.29192017	     -5.84041328	     21.19971797	     21.19971797	     13.22222123	     -0.55773393	     -1.67382886	      8.24958117	    -14.10846996	     -5.55754750	     35.61575184	     35.61575184	     12.23445550	    -14.96189848	     -4.42641256	     -7.36583402	      5.87242994	      0.69193403	     -0.23003687	    -16.86636366	     -8.29044748	     33.62453220	     45.54982660	      0.00000000	      0.00000000	     22.75483332	    -15.59254362	     -4.44938126	     58.92189835	     47.24404965	      0.00000000	      0.00000000
     38.89071429	     -4.55200954	     -4.62952939	     -5.45893210	      0.93130652	      0.92413394	      0.55267083	     14.80814363	      6.53526917	     -6.01509521	     22.02233109	     22.02233109	     13.82116765	     -1.61027458	     -1.84222312	     10.86552427	    -14.65294992	     -3.92029153	     40.52865650	     40.52865650	     10.59129688	    -16.15050230	     -5.20225033	     -7.61455619	      5.75135789	      0.34550631	      1.69761459	    -16.88989146	     -8.46454549	     34.47832190	     45.54757254	      0.00000000	      0.00000000	     20.01090131	    -14.64996513	     -3.76289199	     56.44968947	     47.13350189	      0.00000000	      0.00000000
     38.91428571	     -4.15970143	     -4.75587687	     -4.69719160	      0.92938335	      0.92267602	      0.55553519	     14.74413066	      6.86862219	     -5.86666157	     23.05488835	     23.05488835	     14.44104417	     -3.22509765	     -1.66727479	     13.46131578	    -15.07932980	     -2.12813855	     45.51448649	     45.51448649	      8.95493208	    -17.16839142	     -5.10577264	     -8.01390120	      5.68261542	      0.44068796	      3.88498322	    -16.92981733	     -8.72276336	     34.59934085	     45.60014482	      0.00000000	      0.00000000	     18.37805029	    -13.33455859	     -2.71133013	     51.31926135	     46.97319673	      0.00000000	      0.00000000
     38.93785714	     -3.86506905	     -4.86295625	     -3.89737324	      0.92734554	      0.92065586	      0.55812828	     14.90115893	      7.12462496	     -5.97259896	     24.26378927	     24.26378927	     15.04816097	     -4.63091678	     -1.83033036	     16.27879120	    -15.40698301	     -0.36974133	     50.42569366	     50.42569366	      7.23330362	    -17.85856935	     -4.65644916	     -8.35448328	      5.58555849	      0.15442502	      6.07275926	    -16.86801371	     -8.93010771	     35.57282547	     45.59462939	      0.00000000	      0.00000000	     15.63138038	    -12.39284662	     -2.04210678	     48.50470508	     46.85692373	      0.00000000	      0.00000000
